<mxfile host="app.diagrams.net" modified="2023-12-06T09:34:44.917Z" agent="Mozilla/5.0 (Macintosh; Intel Mac OS X 10_15_7) AppleWebKit/537.36 (KHTML, like Gecko) Chrome/116.0.0.0 Safari/537.36" version="22.1.5" etag="M8hd5cUJrkvKdTf2xU2P" type="github">
  <diagram name="第 1 页" id="dQrZd7rGlfuKdk0igdKL">
    <mxGraphModel>
      <root>
        <mxCell id="0" />
        <mxCell id="1" parent="0" />
      </root>
    </mxGraphModel>
  </diagram>
</mxfile>
